<?xml version="1.0" encoding="utf-8"?>
<!-- Generator: Adobe Illustrator 16.0.0, SVG Export Plug-In . SVG Version: 6.00 Build 0)  -->
<!DOCTYPE svg PUBLIC "-//W3C//DTD SVG 1.1//EN" "http://www.w3.org/Graphics/SVG/1.1/DTD/svg11.dtd">
<svg version="1.1" id="Слой_1" xmlns="http://www.w3.org/2000/svg" xmlns:xlink="http://www.w3.org/1999/xlink" x="0px" y="0px"
	 width="512px" height="512px" viewBox="0 0 512 512" enable-background="new 0 0 512 512" xml:space="preserve">
<linearGradient id="SVGID_1_" gradientUnits="userSpaceOnUse" x1="60.6543" y1="162.9326" x2="473.6543" y2="162.9326">
	<stop  offset="0" style="stop-color:#00A0DD"/>
	<stop  offset="1" style="stop-color:#8E4199"/>
</linearGradient>
<path fill="url(#SVGID_1_)" d="M465.654,147.291c0-2.937,3.5-5.353,8-5.669v-6.781c-4.5-0.316-8-2.732-8-5.669
	c0-2.938,3.5-5.354,8-5.669V111.93c-16.075-2.071-28.648-14.302-29.986-29.497H85.357c0.021,0.413,0.034,0.828,0.034,1.246
	c0,13.456-10.774,24.564-24.737,26.293v10.206c0.329-0.023,0.662-0.037,1-0.037c4.971,0,9,2.555,9,5.706s-4.029,5.706-9,5.706
	c-0.338,0-0.671-0.014-1-0.037v6.781c0.329-0.023,0.662-0.037,1-0.037c4.971,0,9,2.555,9,5.705c0,3.152-4.029,5.707-9,5.707
	c-0.338,0-0.671-0.014-1-0.037v6.651c0.329-0.023,0.662-0.037,1-0.037c4.971,0,9,2.555,9,5.705c0,3.152-4.029,5.707-9,5.707
	c-0.338,0-0.671-0.014-1-0.037v6.734c0.329-0.023,0.662-0.037,1-0.037c4.971,0,9,2.555,9,5.705c0,3.152-4.029,5.707-9,5.707
	c-0.338,0-0.671-0.014-1-0.037v8.652c0.329-0.023,0.662-0.037,1-0.037c4.971,0,9,2.555,9,5.705c0,3.152-4.029,5.707-9,5.707
	c-0.338,0-0.671-0.014-1-0.037v11.821c12.901,2.532,22.586,13.176,22.586,25.925h366.767c-0.004-0.167-0.014-0.332-0.014-0.5
	c0-13.101,10.227-23.974,23.661-26.111v-7.81c-4.5-0.315-8-2.732-8-5.67c0-2.936,3.5-5.353,8-5.668v-8.652
	c-4.5-0.315-8-2.732-8-5.67c0-2.936,3.5-5.353,8-5.668v-6.734c-4.5-0.315-8-2.732-8-5.67c0-2.936,3.5-5.352,8-5.668v-6.652
	C469.154,152.644,465.654,150.228,465.654,147.291z M324.654,241.404H321.1v-7.661h3.555V241.404z M324.654,229.995H321.1v-7.66
	h3.555V229.995z M324.654,218.584H321.1v-7.662h3.555V218.584z M324.654,207.173H321.1v-7.66h3.555V207.173z M324.654,195.763H321.1
	v-7.662h3.555V195.763z M324.654,184.353H321.1v-7.662h3.555V184.353z M324.654,172.942H321.1v-7.662h3.555V172.942z
	 M324.654,161.529H321.1v-7.66h3.555V161.529z M324.654,150.121H321.1v-7.661h3.555V150.121z M324.654,138.709H321.1v-7.662h3.555
	V138.709z M324.654,127.298H321.1v-7.66h3.555V127.298z M324.654,115.887H321.1v-7.662h3.555V115.887z M324.654,104.478H321.1
	v-7.662h3.555V104.478z M324.654,93.067H321.1v-7.662h3.555V93.067z"/>
<g>
	<g>
		<polyline fill="none" stroke="#FFFFFF" stroke-width="0.25" stroke-linecap="round" stroke-linejoin="round" points="
			314.168,219.991 314.168,87.314 91.139,87.314 91.139,241.503 292.654,241.503 		"/>
		<g>
			<g>
				<polyline fill="none" stroke="#FFFFFF" stroke-width="0.5" stroke-linecap="round" stroke-linejoin="round" points="
					311.723,234.941 311.723,210.655 311.723,89.759 93.584,89.759 93.584,239.058 283.32,239.058 307.605,239.058 				"/>
				<g>
					<circle fill="#FFFFFF" cx="311.723" cy="234.904" r="0.752"/>
				</g>
				<g>
					<circle fill="#FFFFFF" cx="307.568" cy="239.058" r="0.752"/>
				</g>
			</g>
		</g>
		<g>
			<g>
				<path fill="none" stroke="#FFFFFF" stroke-width="0.5" d="M315.344,227.5l-0.441-0.412c-7.34-6.852-20.551,7.83-12.723,4.648
					c7.027-2.855,7.096-11.745,7.096-11.745V92.207H96.032v144.404h196.623c0,0,8.891-0.068,11.746-7.096
					c3.18-7.828-11.502,5.383-4.649,12.723l0.412,0.441"/>
				<g>
					<path fill="#FFFFFF" d="M317.109,229.146c-0.543-1.083-1.082-2.571-1.201-3.723l-0.795,1.86l-1.801,0.921
						C314.471,228.244,315.992,228.679,317.109,229.146z"/>
				</g>
				<g>
					<path fill="#FFFFFF" d="M301.811,244.445c-1.084-0.543-2.57-1.082-3.724-1.201l1.86-0.796l0.922-1.8
						C300.907,241.806,301.344,243.328,301.811,244.445z"/>
				</g>
			</g>
		</g>
	</g>
</g>
<linearGradient id="SVGID_2_" gradientUnits="userSpaceOnUse" x1="165.3267" y1="115.8872" x2="165.3267" y2="82.7134">
	<stop  offset="0" style="stop-color:#FFC43E"/>
	<stop  offset="0.0119" style="stop-color:#FEC43C"/>
	<stop  offset="0.1708" style="stop-color:#FCBC27"/>
	<stop  offset="0.3344" style="stop-color:#FBB71A"/>
	<stop  offset="0.5088" style="stop-color:#FBB616"/>
	<stop  offset="1" style="stop-color:#F3903F"/>
</linearGradient>
<polygon fill="url(#SVGID_2_)" points="229.667,115.887 217.5,112.056 200.5,115.887 182.5,112.056 162.75,115.887 150,112.056 
	130.75,115.887 114.75,112.056 100.987,115.887 100.987,82.713 229.667,82.713 "/>
<rect x="321.1" y="85.405" fill="#FFFFFF" width="3.555" height="7.662"/>
<rect x="321.1" y="96.816" fill="#FFFFFF" width="3.555" height="7.662"/>
<rect x="321.1" y="108.225" fill="#FFFFFF" width="3.555" height="7.662"/>
<rect x="321.1" y="119.638" fill="#FFFFFF" width="3.555" height="7.66"/>
<rect x="321.1" y="131.047" fill="#FFFFFF" width="3.555" height="7.662"/>
<rect x="321.1" y="142.46" fill="#FFFFFF" width="3.555" height="7.661"/>
<rect x="321.1" y="153.869" fill="#FFFFFF" width="3.555" height="7.66"/>
<rect x="321.1" y="165.28" fill="#FFFFFF" width="3.555" height="7.662"/>
<text transform="matrix(1 0 0 1 106.9873 104.2251)" fill="#FFFFFF" font-family="'MyriadPro-Bold'" font-size="16">Билет на сеанс :</text>
<path fill-rule="evenodd" clip-rule="evenodd" fill="#FFFFFF" d="M275.715,229.631c0.002-1.88,0.045-3.76-0.01-5.638
	c-0.025-0.83,0.197-1.325,1.014-1.627c3.504-1.298,6.98-2.67,10.49-3.951c1.291-0.471,2.576-0.362,3.342,0.979
	c0.805,1.41,0.762,2.892-0.008,4.323c-0.133,0.248-0.406,0.489-0.752,0.37c-0.393-0.136-0.543-0.467-0.508-0.864
	c0.041-0.479,0.199-0.965,0.15-1.431c-0.18-1.666-1.332-2.176-2.678-1.165c-0.771,0.58-1.527,1.253-1.891,2.174
	c-1.34,3.404-4.023,5.141-7.367,6.135c-0.488,0.145-1.08,0.194-1.418,0.695C275.959,229.631,275.836,229.631,275.715,229.631z"/>
<path fill-rule="evenodd" clip-rule="evenodd" fill="#FFFFFF" d="M256.181,216.039c3.537-1.411,6.729-2.668,9.905-3.955
	c1.35-0.547,2.588-0.637,3.58,0.644c0.773,0.997,0.836,3.746,0.119,4.666c-0.215,0.278-0.443,0.629-0.875,0.442
	c-0.379-0.165-0.49-0.527-0.422-0.911c0.211-1.151,0.498-2.471-0.918-2.922c-1.387-0.441-2.104,0.865-2.961,1.691
	c-0.76,0.733-0.748,2.308-1.875,2.404c-0.994,0.086-2.057-0.564-3.085-0.9C258.63,216.865,257.614,216.519,256.181,216.039z"/>
<path fill-rule="evenodd" clip-rule="evenodd" fill="#FFFFFF" d="M267.484,195.904c-0.172-0.021-0.342-0.043-0.514-0.064
	c-4.795,1.729-9.731,2.111-14.796,1.798c-3.092-0.191-6.051-0.896-9.027-1.613c-0.195-0.105-0.39-0.212-0.585-0.317
	c-0.439-0.811-1.771-1.243-1.019-2.72c1.454,2.512,3.969,2.812,6.346,3.213c5.531,0.934,11.06,0.909,16.539-0.479
	c1.668-0.422,3.207-1.021,4.166-2.66C269.381,194.58,267.82,194.979,267.484,195.904z"/>
<linearGradient id="SVGID_3_" gradientUnits="userSpaceOnUse" x1="261.8516" y1="186.9648" x2="261.8516" y2="191.3467">
	<stop  offset="0" style="stop-color:#FFF33B"/>
	<stop  offset="0.0595" style="stop-color:#FFE029"/>
	<stop  offset="0.1303" style="stop-color:#FFD218"/>
	<stop  offset="0.2032" style="stop-color:#FEC90F"/>
	<stop  offset="0.2809" style="stop-color:#FDC70C"/>
	<stop  offset="0.6685" style="stop-color:#F3903F"/>
	<stop  offset="0.8876" style="stop-color:#ED683C"/>
	<stop  offset="1" style="stop-color:#E93E3A"/>
</linearGradient>
<path fill-rule="evenodd" clip-rule="evenodd" fill="url(#SVGID_3_)" d="M261.738,191.347c-0.637-0.776-2.044-0.456-2.063-1.804
	c-0.013-0.926,1.86-2.81,2.665-2.555c0.789,0.25,1.76,0.594,1.684,1.784C263.932,190.216,262.625,190.501,261.738,191.347z"/>
<linearGradient id="SVGID_4_" gradientUnits="userSpaceOnUse" x1="248.6895" y1="191.3457" x2="248.6895" y2="195.4678">
	<stop  offset="0" style="stop-color:#FFF33B"/>
	<stop  offset="0.0595" style="stop-color:#FFE029"/>
	<stop  offset="0.1303" style="stop-color:#FFD218"/>
	<stop  offset="0.2032" style="stop-color:#FEC90F"/>
	<stop  offset="0.2809" style="stop-color:#FDC70C"/>
	<stop  offset="0.6685" style="stop-color:#F3903F"/>
	<stop  offset="0.8876" style="stop-color:#ED683C"/>
	<stop  offset="1" style="stop-color:#E93E3A"/>
</linearGradient>
<path fill-rule="evenodd" clip-rule="evenodd" fill="url(#SVGID_4_)" d="M250.821,192.508c-0.572,1.252-0.653,2.878-2.167,2.957
	c-0.673,0.034-2.02-0.213-2.094-1.507c-0.049-0.861,1.98-2.801,2.75-2.598C249.951,191.531,250.562,191.924,250.821,192.508z"/>
<linearGradient id="SVGID_5_" gradientUnits="userSpaceOnUse" x1="256.1211" y1="192.7549" x2="256.1211" y2="196.1167">
	<stop  offset="0" style="stop-color:#FFF33B"/>
	<stop  offset="0.0595" style="stop-color:#FFE029"/>
	<stop  offset="0.1303" style="stop-color:#FFD218"/>
	<stop  offset="0.2032" style="stop-color:#FEC90F"/>
	<stop  offset="0.2809" style="stop-color:#FDC70C"/>
	<stop  offset="0.6685" style="stop-color:#F3903F"/>
	<stop  offset="0.8876" style="stop-color:#ED683C"/>
	<stop  offset="1" style="stop-color:#E93E3A"/>
</linearGradient>
<path fill-rule="evenodd" clip-rule="evenodd" fill="url(#SVGID_5_)" d="M258.183,194.479c-0.148,1.593-1.564,1.275-2.375,1.602
	c-0.408,0.163-1.916-0.228-1.732-1.3c0.159-0.923,0.407-2.111,2.016-2.021C257.435,192.835,257.764,193.668,258.183,194.479z"/>
<linearGradient id="SVGID_6_" gradientUnits="userSpaceOnUse" x1="256.6836" y1="186.8975" x2="256.6836" y2="190.1519">
	<stop  offset="0" style="stop-color:#FFF33B"/>
	<stop  offset="0.0595" style="stop-color:#FFE029"/>
	<stop  offset="0.1303" style="stop-color:#FFD218"/>
	<stop  offset="0.2032" style="stop-color:#FEC90F"/>
	<stop  offset="0.2809" style="stop-color:#FDC70C"/>
	<stop  offset="0.6685" style="stop-color:#F3903F"/>
	<stop  offset="0.8876" style="stop-color:#ED683C"/>
	<stop  offset="1" style="stop-color:#E93E3A"/>
</linearGradient>
<path fill-rule="evenodd" clip-rule="evenodd" fill="url(#SVGID_6_)" d="M256.691,186.925c1.241-0.178,1.911,0.626,2.012,1.61
	c0.149,1.452-1.31,1.466-2.169,1.597c-0.696,0.107-2.008-0.211-1.87-1.221C254.786,188.02,255.15,186.689,256.691,186.925z"/>
<linearGradient id="SVGID_7_" gradientUnits="userSpaceOnUse" x1="246.7593" y1="186.4009" x2="246.7593" y2="189.7188">
	<stop  offset="0" style="stop-color:#FFF33B"/>
	<stop  offset="0.0595" style="stop-color:#FFE029"/>
	<stop  offset="0.1303" style="stop-color:#FFD218"/>
	<stop  offset="0.2032" style="stop-color:#FEC90F"/>
	<stop  offset="0.2809" style="stop-color:#FDC70C"/>
	<stop  offset="0.6685" style="stop-color:#F3903F"/>
	<stop  offset="0.8876" style="stop-color:#ED683C"/>
	<stop  offset="1" style="stop-color:#E93E3A"/>
</linearGradient>
<path fill-rule="evenodd" clip-rule="evenodd" fill="url(#SVGID_7_)" d="M246.545,186.456c1.517-0.022,2.168,0.662,2.218,1.726
	c0.069,1.512-1.395,1.429-2.235,1.528c-0.606,0.072-1.957-0.253-1.753-1.35C244.948,187.419,245.299,186.117,246.545,186.456z"/>
<linearGradient id="SVGID_8_" gradientUnits="userSpaceOnUse" x1="265.9707" y1="190.2402" x2="265.9707" y2="193.7734">
	<stop  offset="0" style="stop-color:#FFF33B"/>
	<stop  offset="0.0595" style="stop-color:#FFE029"/>
	<stop  offset="0.1303" style="stop-color:#FFD218"/>
	<stop  offset="0.2032" style="stop-color:#FEC90F"/>
	<stop  offset="0.2809" style="stop-color:#FDC70C"/>
	<stop  offset="0.6685" style="stop-color:#F3903F"/>
	<stop  offset="0.8876" style="stop-color:#ED683C"/>
	<stop  offset="1" style="stop-color:#E93E3A"/>
</linearGradient>
<path fill-rule="evenodd" clip-rule="evenodd" fill="url(#SVGID_8_)" d="M267.791,191.983c0.154,1.461-0.211,1.907-1.473,1.765
	c-1.332-0.151-2.029-1.046-2.186-2.045c-0.174-1.106,1.063-1.322,1.896-1.45C266.961,190.109,267.811,191.217,267.791,191.983z"/>
<linearGradient id="SVGID_9_" gradientUnits="userSpaceOnUse" x1="251.7124" y1="186.1382" x2="251.7124" y2="189.6714">
	<stop  offset="0" style="stop-color:#FFF33B"/>
	<stop  offset="0.0595" style="stop-color:#FFE029"/>
	<stop  offset="0.1303" style="stop-color:#FFD218"/>
	<stop  offset="0.2032" style="stop-color:#FEC90F"/>
	<stop  offset="0.2809" style="stop-color:#FDC70C"/>
	<stop  offset="0.6685" style="stop-color:#F3903F"/>
	<stop  offset="0.8876" style="stop-color:#ED683C"/>
	<stop  offset="1" style="stop-color:#E93E3A"/>
</linearGradient>
<path fill-rule="evenodd" clip-rule="evenodd" fill="url(#SVGID_9_)" d="M251.475,186.207c1.807,0.06,2.189,1.243,2.232,2.165
	c0.043,0.913-1.534,1.46-1.813,1.258c-0.731-0.531-2.474-0.153-2.132-1.632C249.941,187.22,250.318,185.812,251.475,186.207z"/>
<linearGradient id="SVGID_10_" gradientUnits="userSpaceOnUse" x1="243.9951" y1="190.7476" x2="243.9951" y2="194.2842">
	<stop  offset="0" style="stop-color:#FFF33B"/>
	<stop  offset="0.0595" style="stop-color:#FFE029"/>
	<stop  offset="0.1303" style="stop-color:#FFD218"/>
	<stop  offset="0.2032" style="stop-color:#FEC90F"/>
	<stop  offset="0.2809" style="stop-color:#FDC70C"/>
	<stop  offset="0.6685" style="stop-color:#F3903F"/>
	<stop  offset="0.8876" style="stop-color:#ED683C"/>
	<stop  offset="1" style="stop-color:#E93E3A"/>
</linearGradient>
<path fill-rule="evenodd" clip-rule="evenodd" fill="url(#SVGID_10_)" d="M245.786,192.923c0.138,0.972-0.134,1.394-1.263,1.359
	c-1.403-0.041-2.107-0.922-2.322-1.968c-0.239-1.163,0.982-1.415,1.82-1.554C244.925,190.61,245.778,191.779,245.786,192.923z"/>
<linearGradient id="SVGID_11_" gradientUnits="userSpaceOnUse" x1="243.4092" y1="219.5127" x2="243.4092" y2="223.1538">
	<stop  offset="0" style="stop-color:#FFF33B"/>
	<stop  offset="0.0595" style="stop-color:#FFE029"/>
	<stop  offset="0.1303" style="stop-color:#FFD218"/>
	<stop  offset="0.2032" style="stop-color:#FEC90F"/>
	<stop  offset="0.2809" style="stop-color:#FDC70C"/>
	<stop  offset="0.6685" style="stop-color:#F3903F"/>
	<stop  offset="0.8876" style="stop-color:#ED683C"/>
	<stop  offset="1" style="stop-color:#E93E3A"/>
</linearGradient>
<path fill-rule="evenodd" clip-rule="evenodd" fill="url(#SVGID_11_)" d="M241.819,221.119c0.391-0.516,0.458-1.657,1.456-1.604
	c0.778,0.041,1.87,0.261,1.709,1.565c-0.12,0.969-0.596,2.044-1.461,2.073C242.753,223.178,241.974,222.298,241.819,221.119z"/>
<linearGradient id="SVGID_12_" gradientUnits="userSpaceOnUse" x1="252.3647" y1="192.4482" x2="252.3647" y2="196.02">
	<stop  offset="0" style="stop-color:#FFF33B"/>
	<stop  offset="0.0595" style="stop-color:#FFE029"/>
	<stop  offset="0.1303" style="stop-color:#FFD218"/>
	<stop  offset="0.2032" style="stop-color:#FEC90F"/>
	<stop  offset="0.2809" style="stop-color:#FDC70C"/>
	<stop  offset="0.6685" style="stop-color:#F3903F"/>
	<stop  offset="0.8876" style="stop-color:#ED683C"/>
	<stop  offset="1" style="stop-color:#E93E3A"/>
</linearGradient>
<path fill-rule="evenodd" clip-rule="evenodd" fill="url(#SVGID_12_)" d="M252.007,196.02c-0.838,0.02-1.21-0.474-1.258-1.232
	c-0.091-1.432,0.906-2.022,2.044-2.317c0.537-0.139,1.072,0.412,1.174,0.922C254.158,194.343,252.84,195.994,252.007,196.02z"/>
<linearGradient id="SVGID_13_" gradientUnits="userSpaceOnUse" x1="257.1133" y1="181.4214" x2="257.1133" y2="184.2959">
	<stop  offset="0" style="stop-color:#FFF33B"/>
	<stop  offset="0.0595" style="stop-color:#FFE029"/>
	<stop  offset="0.1303" style="stop-color:#FFD218"/>
	<stop  offset="0.2032" style="stop-color:#FEC90F"/>
	<stop  offset="0.2809" style="stop-color:#FDC70C"/>
	<stop  offset="0.6685" style="stop-color:#F3903F"/>
	<stop  offset="0.8876" style="stop-color:#ED683C"/>
	<stop  offset="1" style="stop-color:#E93E3A"/>
</linearGradient>
<path fill-rule="evenodd" clip-rule="evenodd" fill="url(#SVGID_13_)" d="M257.14,181.45c1.271-0.207,1.638,0.762,1.733,1.71
	c0.097,0.954-1.01,1.207-1.512,1.12c-0.737-0.127-2.051,0.008-2.012-1.245C255.376,182.146,255.889,181.307,257.14,181.45z"/>
<linearGradient id="SVGID_14_" gradientUnits="userSpaceOnUse" x1="240.4204" y1="217.4204" x2="240.4204" y2="221.0464">
	<stop  offset="0" style="stop-color:#FFF33B"/>
	<stop  offset="0.0595" style="stop-color:#FFE029"/>
	<stop  offset="0.1303" style="stop-color:#FFD218"/>
	<stop  offset="0.2032" style="stop-color:#FEC90F"/>
	<stop  offset="0.2809" style="stop-color:#FDC70C"/>
	<stop  offset="0.6685" style="stop-color:#F3903F"/>
	<stop  offset="0.8876" style="stop-color:#ED683C"/>
	<stop  offset="1" style="stop-color:#E93E3A"/>
</linearGradient>
<path fill-rule="evenodd" clip-rule="evenodd" fill="url(#SVGID_14_)" d="M241.036,220.97c-0.603,0.258-3.034-0.045-2.217-2.275
	c0.368-1.005,1.687-1.801,2.816-0.841C242.813,218.854,241.861,219.864,241.036,220.97z"/>
<linearGradient id="SVGID_15_" gradientUnits="userSpaceOnUse" x1="263.2031" y1="191.4258" x2="263.2031" y2="194.9976">
	<stop  offset="0" style="stop-color:#FFF33B"/>
	<stop  offset="0.0595" style="stop-color:#FFE029"/>
	<stop  offset="0.1303" style="stop-color:#FFD218"/>
	<stop  offset="0.2032" style="stop-color:#FEC90F"/>
	<stop  offset="0.2809" style="stop-color:#FDC70C"/>
	<stop  offset="0.6685" style="stop-color:#F3903F"/>
	<stop  offset="0.8876" style="stop-color:#ED683C"/>
	<stop  offset="1" style="stop-color:#E93E3A"/>
</linearGradient>
<path fill-rule="evenodd" clip-rule="evenodd" fill="url(#SVGID_15_)" d="M264.865,193.934c-0.387,0.393-0.494,1.139-1.223,1.058
	c-0.879-0.099-1.902-0.229-2.084-1.301c-0.088-0.518,0.152-1.287,0.529-1.629c0.396-0.358,1.248-1.354,1.619,0.247
	C263.842,192.889,264.441,193.361,264.865,193.934z"/>
<linearGradient id="SVGID_16_" gradientUnits="userSpaceOnUse" x1="250.8784" y1="181.7671" x2="250.8784" y2="184.8745">
	<stop  offset="0" style="stop-color:#FFF33B"/>
	<stop  offset="0.0595" style="stop-color:#FFE029"/>
	<stop  offset="0.1303" style="stop-color:#FFD218"/>
	<stop  offset="0.2032" style="stop-color:#FEC90F"/>
	<stop  offset="0.2809" style="stop-color:#FDC70C"/>
	<stop  offset="0.6685" style="stop-color:#F3903F"/>
	<stop  offset="0.8876" style="stop-color:#ED683C"/>
	<stop  offset="1" style="stop-color:#E93E3A"/>
</linearGradient>
<path fill-rule="evenodd" clip-rule="evenodd" fill="url(#SVGID_16_)" d="M252.3,182.892c0.245,0.523,0.723,1.123-0.19,1.435
	c-0.519,0.176-1.111,1.098-1.647,0.069c-0.324-0.621-1.607-0.389-1.306-1.439c0.139-0.485,0.491-0.951,1.077-1.122
	c1.08-0.314,1.534,0.528,2.128,1.118L252.3,182.892z"/>
<linearGradient id="SVGID_17_" gradientUnits="userSpaceOnUse" x1="262.6709" y1="183.9155" x2="262.6709" y2="186.8447">
	<stop  offset="0" style="stop-color:#FFF33B"/>
	<stop  offset="0.0595" style="stop-color:#FFE029"/>
	<stop  offset="0.1303" style="stop-color:#FFD218"/>
	<stop  offset="0.2032" style="stop-color:#FEC90F"/>
	<stop  offset="0.2809" style="stop-color:#FDC70C"/>
	<stop  offset="0.6685" style="stop-color:#F3903F"/>
	<stop  offset="0.8876" style="stop-color:#ED683C"/>
	<stop  offset="1" style="stop-color:#E93E3A"/>
</linearGradient>
<path fill-rule="evenodd" clip-rule="evenodd" fill="url(#SVGID_17_)" d="M264.461,185.552c-0.516,0.376-0.504,1.553-0.813,1.241
	c-0.838-0.846-2.648,0.617-2.744-1.176c-0.025-0.485-0.241-1.918,1.377-1.674C263.412,184.115,263.842,184.828,264.461,185.552z"/>
<linearGradient id="SVGID_18_" gradientUnits="userSpaceOnUse" x1="248.3228" y1="183.8989" x2="248.3228" y2="186.9028">
	<stop  offset="0" style="stop-color:#FFF33B"/>
	<stop  offset="0.0595" style="stop-color:#FFE029"/>
	<stop  offset="0.1303" style="stop-color:#FFD218"/>
	<stop  offset="0.2032" style="stop-color:#FEC90F"/>
	<stop  offset="0.2809" style="stop-color:#FDC70C"/>
	<stop  offset="0.6685" style="stop-color:#F3903F"/>
	<stop  offset="0.8876" style="stop-color:#ED683C"/>
	<stop  offset="1" style="stop-color:#E93E3A"/>
</linearGradient>
<path fill-rule="evenodd" clip-rule="evenodd" fill="url(#SVGID_18_)" d="M250.152,185.469c0.063,0.633-0.309,1.048-0.781,1.337
	c-0.536,0.328-0.697-0.27-1.007-0.504c-0.235-0.179-0.486-0.418-0.753-0.456c-0.568-0.078-1.124-0.083-1.123-0.865
	c0.001-0.887,0.836-0.823,1.315-1.007C248.742,183.616,250.172,184.606,250.152,185.469z"/>
<linearGradient id="SVGID_19_" gradientUnits="userSpaceOnUse" x1="260.416" y1="180.8179" x2="260.416" y2="184.2168">
	<stop  offset="0" style="stop-color:#FFF33B"/>
	<stop  offset="0.0595" style="stop-color:#FFE029"/>
	<stop  offset="0.1303" style="stop-color:#FFD218"/>
	<stop  offset="0.2032" style="stop-color:#FEC90F"/>
	<stop  offset="0.2809" style="stop-color:#FDC70C"/>
	<stop  offset="0.6685" style="stop-color:#F3903F"/>
	<stop  offset="0.8876" style="stop-color:#ED683C"/>
	<stop  offset="1" style="stop-color:#E93E3A"/>
</linearGradient>
<path fill-rule="evenodd" clip-rule="evenodd" fill="url(#SVGID_19_)" d="M259.444,183.004c0.095-0.491,0.14-0.722,0.185-0.952
	c0.085-0.452-1.646-0.674-0.288-1.127c0.863-0.289,1.955-0.038,2.512,1.294c0.464,1.105-0.164,1.136-0.745,1.332
	c-0.471,0.158-0.696,1-1.382,0.521C259.225,183.72,259.439,183.203,259.444,183.004z"/>
<linearGradient id="SVGID_20_" gradientUnits="userSpaceOnUse" x1="259.8018" y1="192.4849" x2="259.8018" y2="195.8726">
	<stop  offset="0" style="stop-color:#FFF33B"/>
	<stop  offset="0.0595" style="stop-color:#FFE029"/>
	<stop  offset="0.1303" style="stop-color:#FFD218"/>
	<stop  offset="0.2032" style="stop-color:#FEC90F"/>
	<stop  offset="0.2809" style="stop-color:#FDC70C"/>
	<stop  offset="0.6685" style="stop-color:#F3903F"/>
	<stop  offset="0.8876" style="stop-color:#ED683C"/>
	<stop  offset="1" style="stop-color:#E93E3A"/>
</linearGradient>
<path fill-rule="evenodd" clip-rule="evenodd" fill="url(#SVGID_20_)" d="M258.438,192.568c1.941-0.414,3.147,0.754,2.591,2.485
	c-0.352,1.092-1.312,0.849-1.974,0.637c-1.019-0.326-0.49-1.443-0.213-1.738C259.63,193.113,258.968,192.915,258.438,192.568z"/>
<linearGradient id="SVGID_21_" gradientUnits="userSpaceOnUse" x1="253.7837" y1="180.355" x2="253.7837" y2="183.2725">
	<stop  offset="0" style="stop-color:#FFF33B"/>
	<stop  offset="0.0595" style="stop-color:#FFE029"/>
	<stop  offset="0.1303" style="stop-color:#FFD218"/>
	<stop  offset="0.2032" style="stop-color:#FEC90F"/>
	<stop  offset="0.2809" style="stop-color:#FDC70C"/>
	<stop  offset="0.6685" style="stop-color:#F3903F"/>
	<stop  offset="0.8876" style="stop-color:#ED683C"/>
	<stop  offset="1" style="stop-color:#E93E3A"/>
</linearGradient>
<path fill-rule="evenodd" clip-rule="evenodd" fill="url(#SVGID_21_)" d="M252.362,182.953c0.154-1.954,0.837-2.788,2.158-2.562
	c0.394,0.067,1.336,0.133,0.22,0.73c-0.049,0.027-0.123,0.102-0.113,0.134c0.815,2.809-0.93,1.973-2.325,1.636
	C252.3,182.892,252.362,182.953,252.362,182.953z"/>
<linearGradient id="SVGID_22_" gradientUnits="userSpaceOnUse" x1="255.438" y1="189.8594" x2="255.438" y2="192.3257">
	<stop  offset="0" style="stop-color:#FFF33B"/>
	<stop  offset="0.0595" style="stop-color:#FFE029"/>
	<stop  offset="0.1303" style="stop-color:#FFD218"/>
	<stop  offset="0.2032" style="stop-color:#FEC90F"/>
	<stop  offset="0.2809" style="stop-color:#FDC70C"/>
	<stop  offset="0.6685" style="stop-color:#F3903F"/>
	<stop  offset="0.8876" style="stop-color:#ED683C"/>
	<stop  offset="1" style="stop-color:#E93E3A"/>
</linearGradient>
<path fill-rule="evenodd" clip-rule="evenodd" fill="url(#SVGID_22_)" d="M257.362,190.794c-0.025,1.057-0.514,1.483-1.514,1.528
	c-0.98,0.044-1.655-0.321-2.172-1.106c-0.284-0.432-0.169-0.834,0.14-1.146c0.555-0.563,0.546,0.165,0.827,0.345
	C255.409,190.906,256.312,190.956,257.362,190.794z"/>
<linearGradient id="SVGID_23_" gradientUnits="userSpaceOnUse" x1="250.8472" y1="189.2793" x2="250.8472" y2="191.8228">
	<stop  offset="0" style="stop-color:#FFF33B"/>
	<stop  offset="0.0595" style="stop-color:#FFE029"/>
	<stop  offset="0.1303" style="stop-color:#FFD218"/>
	<stop  offset="0.2032" style="stop-color:#FEC90F"/>
	<stop  offset="0.2809" style="stop-color:#FDC70C"/>
	<stop  offset="0.6685" style="stop-color:#F3903F"/>
	<stop  offset="0.8876" style="stop-color:#ED683C"/>
	<stop  offset="1" style="stop-color:#E93E3A"/>
</linearGradient>
<path fill-rule="evenodd" clip-rule="evenodd" fill="url(#SVGID_23_)" d="M249.074,189.279c1.027,0.352,1.854,0.644,2.688,0.916
	c0.351,0.114,0.923-0.219,0.991,0.449c0.07,0.687-0.458,0.954-0.978,1.119c-1.128,0.356-1.606-1.02-2.69-1.064
	C248.672,190.681,249.262,189.858,249.074,189.279z"/>
<linearGradient id="SVGID_24_" gradientUnits="userSpaceOnUse" x1="265.9395" y1="187.2651" x2="265.9395" y2="189.8496">
	<stop  offset="0" style="stop-color:#FFF33B"/>
	<stop  offset="0.0595" style="stop-color:#FFE029"/>
	<stop  offset="0.1303" style="stop-color:#FFD218"/>
	<stop  offset="0.2032" style="stop-color:#FEC90F"/>
	<stop  offset="0.2809" style="stop-color:#FDC70C"/>
	<stop  offset="0.6685" style="stop-color:#F3903F"/>
	<stop  offset="0.8876" style="stop-color:#ED683C"/>
	<stop  offset="1" style="stop-color:#E93E3A"/>
</linearGradient>
<path fill-rule="evenodd" clip-rule="evenodd" fill="url(#SVGID_24_)" d="M266.393,189.591c-0.457-0.174-0.756,0.087-1.094,0.188
	c-0.285,0.087-0.648,0.146-0.809-0.156c-0.164-0.313,0.086-0.55,0.354-0.73c0.26-0.178,0.707-0.197,0.455-0.757
	c-0.361-0.806-0.199-0.941,0.713-0.843c1.107,0.12,1.279,1.094,1.41,1.813C267.561,189.869,266.91,189.897,266.393,189.591z"/>
<linearGradient id="SVGID_25_" gradientUnits="userSpaceOnUse" x1="253.188" y1="183.8735" x2="253.188" y2="186.3672">
	<stop  offset="0" style="stop-color:#FFF33B"/>
	<stop  offset="0.0595" style="stop-color:#FFE029"/>
	<stop  offset="0.1303" style="stop-color:#FFD218"/>
	<stop  offset="0.2032" style="stop-color:#FEC90F"/>
	<stop  offset="0.2809" style="stop-color:#FDC70C"/>
	<stop  offset="0.6685" style="stop-color:#F3903F"/>
	<stop  offset="0.8876" style="stop-color:#ED683C"/>
	<stop  offset="1" style="stop-color:#E93E3A"/>
</linearGradient>
<path fill-rule="evenodd" clip-rule="evenodd" fill="url(#SVGID_25_)" d="M254.987,185.886c-1.269,1.321-2.161-0.552-3.757-0.033
	c0.811-0.985,2.03-0.621,1.986-1.861c-0.016-0.473,0.649,0.664,1.128,0.171c0.465,0.506,1.149,0.938,0.592,1.783L254.987,185.886z"
	/>
<linearGradient id="SVGID_26_" gradientUnits="userSpaceOnUse" x1="259.5869" y1="184.7085" x2="259.5869" y2="187.8662">
	<stop  offset="0" style="stop-color:#FFF33B"/>
	<stop  offset="0.0595" style="stop-color:#FFE029"/>
	<stop  offset="0.1303" style="stop-color:#FFD218"/>
	<stop  offset="0.2032" style="stop-color:#FEC90F"/>
	<stop  offset="0.2809" style="stop-color:#FDC70C"/>
	<stop  offset="0.6685" style="stop-color:#F3903F"/>
	<stop  offset="0.8876" style="stop-color:#ED683C"/>
	<stop  offset="1" style="stop-color:#E93E3A"/>
</linearGradient>
<path fill-rule="evenodd" clip-rule="evenodd" fill="url(#SVGID_26_)" d="M258.532,184.758c0.727,0.186,1.637-0.521,1.79,0.616
	c0.091,0.679,0.865,1.626-0.39,2.145c-0.291,0.119-0.477,0.626-0.839,0.143c-0.198-0.264-0.724-0.632-0.335-0.882
	C259.932,186.025,258.708,185.525,258.532,184.758z"/>
<linearGradient id="SVGID_27_" gradientUnits="userSpaceOnUse" x1="256.5347" y1="184.4116" x2="256.5347" y2="186.3447">
	<stop  offset="0" style="stop-color:#FFF33B"/>
	<stop  offset="0.0595" style="stop-color:#FFE029"/>
	<stop  offset="0.1303" style="stop-color:#FFD218"/>
	<stop  offset="0.2032" style="stop-color:#FEC90F"/>
	<stop  offset="0.2809" style="stop-color:#FDC70C"/>
	<stop  offset="0.6685" style="stop-color:#F3903F"/>
	<stop  offset="0.8876" style="stop-color:#ED683C"/>
	<stop  offset="1" style="stop-color:#E93E3A"/>
</linearGradient>
<path fill-rule="evenodd" clip-rule="evenodd" fill="url(#SVGID_27_)" d="M254.987,185.886l-0.05,0.06
	c1.081-0.35,1.081-0.35,0.606-1.396c0.297-0.249,0.624-0.123,0.802,0.083c0.513,0.592,1.825,0.188,1.787,1.44
	C257.081,186.037,255.984,186.816,254.987,185.886z"/>
<linearGradient id="SVGID_28_" gradientUnits="userSpaceOnUse" x1="246.7378" y1="190.2129" x2="246.7378" y2="191.8599">
	<stop  offset="0" style="stop-color:#FFF33B"/>
	<stop  offset="0.0595" style="stop-color:#FFE029"/>
	<stop  offset="0.1303" style="stop-color:#FFD218"/>
	<stop  offset="0.2032" style="stop-color:#FEC90F"/>
	<stop  offset="0.2809" style="stop-color:#FDC70C"/>
	<stop  offset="0.6685" style="stop-color:#F3903F"/>
	<stop  offset="0.8876" style="stop-color:#ED683C"/>
	<stop  offset="1" style="stop-color:#E93E3A"/>
</linearGradient>
<path fill-rule="evenodd" clip-rule="evenodd" fill="url(#SVGID_28_)" d="M245.456,190.594c0.874-0.113,1.718-0.76,2.449-0.06
	c0.221,0.211,0.13,0.789-0.326,1.084C246.224,192.496,246.31,190.706,245.456,190.594z"/>
<linearGradient id="SVGID_29_" gradientUnits="userSpaceOnUse" x1="254.8975" y1="223.105" x2="275.374" y2="223.105">
	<stop  offset="0" style="stop-color:#FFF33B"/>
	<stop  offset="0.0595" style="stop-color:#FFE029"/>
	<stop  offset="0.1303" style="stop-color:#FFD218"/>
	<stop  offset="0.2032" style="stop-color:#FEC90F"/>
	<stop  offset="0.2809" style="stop-color:#FDC70C"/>
	<stop  offset="0.6685" style="stop-color:#F3903F"/>
	<stop  offset="0.8876" style="stop-color:#ED683C"/>
	<stop  offset="1" style="stop-color:#E93E3A"/>
</linearGradient>
<path fill-rule="evenodd" clip-rule="evenodd" fill="url(#SVGID_29_)" d="M273.729,222.304c-4.221-1.226-8.402-2.596-12.604-3.891
	c-2.023-0.623-4.06-1.199-6.217-1.834c0,2.016-0.013,3.772,0.011,5.529c0.006,0.359-0.188,0.701,0.49,0.943
	c0.303,0.108,1.141,0.476,2.082,0.853l0,0l0.007,0.003c0.547,0.218,1.128,0.44,1.659,0.617c0-0.001,0-0.002-0.001-0.002l0.01,0.003
	c-0.003,0-0.005,0-0.009-0.001c0.117,0.092,0.268,0.163,0.461,0.203c0.113,0.022,0.229,0.056,0.342,0.094l0.374,0.139
	c1.246,0.512,2.551,1.426,3.727-0.052c0.996-1.252,1.422-0.762,1.795,0.282c0.504,1.406,1.543,2.004,2.885,2.438
	c1.969,0.64,4.063,0.922,5.879,2.002c0.244,0,0.486,0,0.73,0c-0.006-1.698-0.115-3.404,0.012-5.093
	C275.461,223.21,274.986,222.669,273.729,222.304z M262.793,222.74c-0.361,1.3-1.334,0.468-2.095,0.356
	c-0.328-0.048-0.623-0.259-0.941-0.336l-0.302-0.155c-0.001,0-0.003-0.002-0.005-0.002l-0.004-0.003l0,0
	c-1.156-0.586-3.134-0.58-2.84-2.588c0.138-0.942,0.513-1.151,1.277-0.944c1.215,0.329,2.407,0.732,3.614,1.086
	C262.863,220.555,263.096,221.647,262.793,222.74z M272.113,226.761c-1.051-0.437-2.162-0.75-3.271-1.015
	c-1.408-0.335-1.58-1.322-1.461-2.497c0.066-0.651,0.389-0.997,1.102-0.77c1.375,0.439,2.746,0.892,4.133,1.297
	c1.025,0.299,0.957,1.102,0.982,2.268C273.66,226.793,273.34,227.271,272.113,226.761z"/>
<linearGradient id="SVGID_30_" gradientUnits="userSpaceOnUse" x1="240.2227" y1="221.2842" x2="240.2227" y2="223.4736">
	<stop  offset="0" style="stop-color:#FFF33B"/>
	<stop  offset="0.0595" style="stop-color:#FFE029"/>
	<stop  offset="0.1303" style="stop-color:#FFD218"/>
	<stop  offset="0.2032" style="stop-color:#FEC90F"/>
	<stop  offset="0.2809" style="stop-color:#FDC70C"/>
	<stop  offset="0.6685" style="stop-color:#F3903F"/>
	<stop  offset="0.8876" style="stop-color:#ED683C"/>
	<stop  offset="1" style="stop-color:#E93E3A"/>
</linearGradient>
<circle fill-rule="evenodd" clip-rule="evenodd" fill="url(#SVGID_30_)" cx="240.223" cy="222.379" r="1.094"/>
<polygon fill-rule="evenodd" clip-rule="evenodd" fill="#FFFFFF" points="244.753,197.737 257.113,199.5 265.971,196.778 
	264.865,211.641 255.146,215.716 253.188,219.513 248.02,218.106 "/>
<linearGradient id="SVGID_31_" gradientUnits="userSpaceOnUse" x1="242.1787" y1="208.2842" x2="267.959" y2="208.2842">
	<stop  offset="0" style="stop-color:#F8A9A5"/>
	<stop  offset="0.0478" style="stop-color:#F69D97"/>
	<stop  offset="0.198" style="stop-color:#F27E75"/>
	<stop  offset="0.3516" style="stop-color:#EF635C"/>
	<stop  offset="0.5071" style="stop-color:#ED494A"/>
	<stop  offset="0.6651" style="stop-color:#EB343E"/>
	<stop  offset="0.8273" style="stop-color:#EA2338"/>
	<stop  offset="1" style="stop-color:#EA1C36"/>
</linearGradient>
<path fill-rule="evenodd" clip-rule="evenodd" fill="url(#SVGID_31_)" d="M267.484,195.904c0.715-0.136,0.426,0.323,0.367,0.632
	c-0.912,4.808-1.846,9.61-2.729,14.424c-0.158,0.859-0.623,1.233-1.623,1.411c0.775-4.7,1.535-9.315,2.35-14.264
	c-1.287,1.188-1.031,2.533-1.254,3.681c-0.619,3.204-1.184,6.424-1.623,9.656c-0.139,1.022-0.549,1.472-1.449,1.791
	c-1.878,0.666-3.699,1.495-5.591,2.111c-1.169,0.382-1.564,0.965-1.552,2.215c0.041,4.199,0.621,3.439-3.651,2.786
	c-2.718-0.414-4.445-1.795-4.923-4.896c-0.975-6.322-2.354-12.582-3.564-18.867c-0.067-0.35-0.191-0.732,0.32-0.877
	c0.195,0.105,0.39,0.212,0.585,0.317c0.459,0.765,1.328,0.827,2.029,1.002c6.267,1.563,12.57,1.706,18.87,0.191
	c1.043-0.251,2.311-0.162,2.924-1.379C267.143,195.861,267.313,195.883,267.484,195.904z M250.841,217.074
	c-0.516-5.21-1.146-10.264-1.459-15.336c-0.143-2.299-1.328-2.883-3.223-3.081c-0.762-0.08-1.057-0.113-0.87,0.882
	c0.633,3.384,1.1,6.799,1.672,10.195c0.401,2.381,0.887,4.747,1.302,7.126c0.207,1.183,1.164,1.364,2.029,1.414
	C251.35,218.335,250.699,217.39,250.841,217.074z M252.563,217.86c-0.255-3.801-0.503-7.603-0.769-11.403
	c-0.148-2.111-0.33-4.22-0.491-6.33c-0.037-0.479-0.177-0.843-0.756-0.754c-0.541,0.084-0.406,0.53-0.386,0.852
	c0.103,1.629,0.224,3.256,0.361,4.881c0.356,4.219,0.721,8.436,1.091,12.652c0.033,0.378-0.146,0.933,0.555,0.898
	C252.718,218.63,252.627,218.214,252.563,217.86z"/>
</svg>
