<?xml version="1.0" encoding="utf-8"?>
<!-- Generator: Adobe Illustrator 16.0.0, SVG Export Plug-In . SVG Version: 6.00 Build 0)  -->
<!DOCTYPE svg PUBLIC "-//W3C//DTD SVG 1.1//EN" "http://www.w3.org/Graphics/SVG/1.1/DTD/svg11.dtd">
<svg version="1.1" id="Слой_1" xmlns="http://www.w3.org/2000/svg" xmlns:xlink="http://www.w3.org/1999/xlink" x="0px" y="0px"
	 width="512px" height="512px" viewBox="0 0 512 512" enable-background="new 0 0 512 512" xml:space="preserve">
<g>
	<defs>
		<path id="SVGID_1_" d="M483.384,215.285c0,1.952,0,3.904,0,5.857c-0.139,0.191-0.357,0.366-0.404,0.579
			c-1.496,6.625-5.582,10.926-11.688,13.731c-7.089,3.255-14,6.899-21.048,10.246c-1.661,0.789-2.147,1.765-2.135,3.542
			c0.087,11.711,0.056,23.422,0.063,35.133c0,2.582,0,5.166,0,7.688c-16.155,3.164-24.048,10.82-24.542,23.65
			c-0.212,5.469,1.313,10.459,4.538,14.877c4.886,6.693,11.694,9.789,20.004,10.127c0,1.049,0,1.852,0,2.654
			c0,18.053-0.214,36.111,0.074,54.16c0.192,12.041-8.925,20.086-19.977,20.045c-57.902-0.227-115.807-0.102-173.71-0.105
			c-63.189-0.006-126.378-0.023-189.568-0.021c-11.646,0-17.306-4.186-20.585-15.334c-0.042-0.145-0.186-0.258-0.283-0.385
			c0-20.338,0-40.674,0-61.01c1.768-0.24,3.566-0.35,5.3-0.742c12.097-2.744,19.887-13.756,18.644-26.27
			c-1.184-11.916-11.275-20.896-23.943-21.307c0-21.313,0-42.625,0-63.938c0.156-0.37,0.367-0.726,0.46-1.11
			c1.547-6.396,5.549-10.539,11.415-13.403c45.591-22.263,91.129-44.632,136.686-66.962c63.445-31.099,126.895-62.19,190.338-93.292
			c10.776-5.283,21.003-1.813,26.321,9.006c7.389,15.032,14.751,30.076,22.119,45.117c0.994,2.029,1.953,4.077,2.91,6.079
			c-12.907,9.553-16.81,20.196-11.729,31.73c2.243,5.091,5.802,9.014,10.731,11.591c7.33,3.832,14.808,3.699,22.367,0.271
			c2.997,6.126,5.938,12.01,8.768,17.948C470.831,188.705,477.096,202,483.384,215.285z M345.248,362.84
			c-1.203,0-2.322-0.002-3.441,0c-36.915,0.012-73.83,0.031-110.746,0.035c-44.314,0.006-88.629,0.014-132.944-0.039
			c-2.05-0.002-3.052,0.408-2.783,2.668c0.171,1.443,0.153,2.938,0.001,4.385c-0.216,2.057,0.585,2.611,2.595,2.59
			c9.35-0.104,18.701-0.066,28.053-0.066c71.963-0.002,143.926-0.002,215.888-0.002c1.108,0,2.218,0,3.582,0
			c0-2.781,0.01-5.207-0.007-7.631C345.44,364.229,345.337,363.68,345.248,362.84z M95.509,269.799c83.396,0,166.584,0,249.752,0
			c0-3.188,0-6.145,0-9.078c-83.349,0-166.479,0-249.752,0C95.509,263.801,95.509,266.695,95.509,269.799z M156.676,214.803
			c0.064,0.22,0.127,0.44,0.192,0.661c6.008,0,12.017,0.053,18.024-0.042c1.327-0.021,2.754-0.34,3.949-0.912
			c7.918-3.792,15.786-7.691,23.67-11.555c38.544-18.889,77.089-37.775,115.633-56.667c4.719-2.313,9.42-4.66,14.359-7.104
			c-1.453-2.958-2.787-5.674-4.181-8.512C270.896,158.819,213.786,186.811,156.676,214.803z M215.53,295.809
			c0,13.99,0,27.672,0,41.408c3.113,0,6,0,9.164,0c0-3.695,0.185-7.262-0.055-10.797c-0.213-3.141,1.708-4.77,3.677-6.801
			c3.117,5.482,6.064,10.719,9.082,15.914c0.409,0.703,1.146,1.682,1.774,1.715c3.26,0.174,6.533,0.08,10.184,0.08
			c-0.656-1.143-1.038-1.84-1.449-2.52c-3.994-6.605-7.967-13.223-12.019-19.793c-0.699-1.135-0.792-1.916,0.114-2.99
			c1.834-2.17,3.517-4.469,5.26-6.715c2.369-3.051,4.735-6.102,7.474-9.631c-2.134,0-3.685,0.217-5.154-0.039
			c-4.769-0.832-7.807,0.969-10.144,5.23c-2.392,4.361-5.52,8.32-8.325,12.455c-0.151-0.033-0.303-0.064-0.455-0.098
			c0-5.777,0-11.553,0-17.42C221.457,295.809,218.566,295.809,215.53,295.809z M280.317,319.779c0-2.693,0-5.082,0-7.803
			c-5.059,0-9.967,0-14.939,0c0-2.965,0-5.598,0-8.576c5.402,0,10.634,0,15.846,0c0-2.746,0-5.137,0-7.596
			c-8.539,0-16.888,0-25.329,0c0,13.879,0,27.631,0,41.369c8.907,0,17.562,0,26.215,0c0-2.59,0-4.979,0-7.656
			c-5.674,0-11.159,0-16.683,0c0-3.4,0-6.504,0-9.738C270.439,319.779,275.224,319.779,280.317,319.779z M206.557,329.121
			c-12.019,1.371-16.322,0.445-19.131-4.637c-3.013-5.449-3.232-11.295,0.356-16.42c4.745-6.779,11.692-5.766,18.741-3.857
			c0.51-1.885,0.908-3.697,1.5-5.445c0.573-1.691-0.141-2.35-1.67-2.732c-6.153-1.539-12.269-1.631-18.181,0.857
			c-7.88,3.316-12.005,9.535-12.642,17.91c-0.629,8.289,1.527,15.617,9.199,20.088c6.878,4.008,14.306,3.707,21.75,1.814
			c0.522-0.133,1.229-1.141,1.172-1.668C207.437,333.037,206.942,331.074,206.557,329.121z M321.734,303.621
			c0-2.813,0-5.219,0-7.771c-10.651,0-21.161,0-31.758,0c0,2.645,0,5.117,0,7.889c3.725,0,7.261,0,11.046,0
			c0,11.324,0,22.348,0,33.48c3.229,0,6.194,0,9.523,0c0-11.219,0-22.297,0-33.598C314.448,303.621,317.993,303.621,321.734,303.621
			z M139.795,303.617c3.859,0,7.463,0,11.121,0c0-2.779,0-5.246,0-7.715c-10.677,0-21.179,0-31.675,0c0,2.631,0,5.037,0,7.775
			c3.679,0,7.206,0,11.065,0c0,11.4,0,22.471,0,33.477c3.313,0,6.272,0,9.489,0C139.795,325.943,139.795,314.934,139.795,303.617z
			 M307.24,189.072c0.455,0.842,0.855,1.528,1.205,2.239c3.617,7.364,7.212,14.739,10.86,22.088c0.37,0.744,1.019,1.872,1.593,1.907
			c3.124,0.188,6.265,0.089,9.952,0.089c-5.129-10.467-10.028-20.466-14.975-30.562c3.541-1.752,6.783-3.357,10.177-5.037
			c-1.238-2.504-2.335-4.724-3.525-7.131c-9.679,4.745-19.118,9.373-28.735,14.088c1.237,2.527,2.327,4.751,3.483,7.113
			C300.707,192.217,303.899,190.68,307.24,189.072z M167.89,337.27c0-13.975,0-27.664,0-41.449c-3.145,0-6.117,0-9.188,0
			c0,13.883,0,27.623,0,41.449C161.865,337.27,164.772,337.27,167.89,337.27z M275.094,204.606c4.98-2.451,9.692-4.77,14.591-7.181
			c-1.209-2.429-2.311-4.637-3.466-6.957c-7.888,3.866-15.438,7.565-23.088,11.314c2.111,4.337,3.994,8.391,6.089,12.331
			c0.368,0.692,1.618,1.271,2.475,1.29c5.122,0.111,10.256-0.145,15.369,0.099c3.461,0.164,5.943-1.667,8.95-3.042
			c-1.202-2.397-2.276-4.54-3.439-6.861c-4.647,2.261-9.073,4.414-13.674,6.652C277.613,209.666,276.429,207.287,275.094,204.606z
			 M385.555,263.246c-3.313,0-6.333,0-9.353,0c0,7.148,0,14.084,0,21.266c2.621,0,5.048-0.068,7.467,0.025
			c1.533,0.061,1.968-0.58,1.936-2.012c-0.076-3.412-0.043-6.826-0.049-10.24C385.552,269.297,385.555,266.309,385.555,263.246z
			 M376.038,348.572c0,6.883-0.021,13.508,0.052,20.133c0.005,0.396,0.737,1.109,1.153,1.127c2.65,0.104,5.308,0.053,8.126,0.053
			c0-7.238,0-14.225,0-21.313C382.252,348.572,379.353,348.572,376.038,348.572z M376.214,305.936c0,7.129,0,14.064,0,21.025
			c3.173,0,6.131,0,9.151,0c0-7.119,0-14.055,0-21.025C382.176,305.936,379.211,305.936,376.214,305.936z M376.134,412.369
			c3.255,0,6.214,0,9.402,0c0-6.756,0.02-13.324-0.048-19.895c-0.004-0.434-0.672-1.219-1.053-1.234
			c-2.732-0.107-5.471-0.059-8.302-0.059C376.134,398.43,376.134,405.307,376.134,412.369z M403.871,215.448
			c2.991-1.47,5.706-2.804,8.525-4.189c-3.237-6.576-6.304-12.803-9.452-19.198c-3.008,1.474-5.727,2.807-8.529,4.181
			C397.619,202.751,400.663,208.932,403.871,215.448z M338.092,81.173c3.205,6.513,6.294,12.792,9.461,19.224
			c3.027-1.496,5.738-2.833,8.517-4.206c-3.253-6.609-6.323-12.843-9.451-19.198C343.66,78.444,340.987,79.753,338.092,81.173z
			 M366.325,138.748c2.993-1.475,5.663-2.79,8.519-4.197c-3.208-6.515-6.297-12.789-9.454-19.203
			c-3.019,1.484-5.674,2.792-8.519,4.192C360.075,126.052,363.144,132.283,366.325,138.748z M393.623,172.914
			c-3.228-6.555-6.316-12.83-9.465-19.223c-2.981,1.474-5.644,2.79-8.501,4.204c3.184,6.482,6.243,12.709,9.426,19.186
			C388.02,175.647,390.741,174.319,393.623,172.914z M385.426,224.589c-2.848,0-5.363-0.092-7.864,0.072
			c-0.549,0.036-1.475,0.973-1.488,1.513c-0.118,4.706-0.101,9.417-0.013,14.124c0.01,0.487,0.728,1.356,1.146,1.375
			c2.713,0.125,5.435,0.064,8.219,0.064C385.426,235.857,385.426,230.373,385.426,224.589z M245.979,215.457
			c2.574,0,5.074,0.055,7.564-0.049c0.471-0.019,1.216-0.603,1.32-1.048c0.7-2.965,1.262-5.962,1.964-9.422
			c-2.435,1.159-4.321,2.305-6.364,2.975C246.897,209.081,245.457,211.402,245.979,215.457z"/>
	</defs>
	<clipPath id="SVGID_2_">
		<use xlink:href="#SVGID_1_"  overflow="visible"/>
	</clipPath>
	<linearGradient id="SVGID_3_" gradientUnits="userSpaceOnUse" x1="22.8887" y1="247.375" x2="504.6201" y2="247.375">
		<stop  offset="0" style="stop-color:#2483C5"/>
		<stop  offset="1" style="stop-color:#652D90"/>
	</linearGradient>
	
		<rect x="22.889" y="19.156" clip-path="url(#SVGID_2_)" fill="url(#SVGID_3_)" stroke="#231F20" stroke-miterlimit="10" width="481.731" height="456.438"/>
</g>
</svg>
