<?xml version="1.0" encoding="utf-8"?>
<!-- Generator: Adobe Illustrator 16.0.0, SVG Export Plug-In . SVG Version: 6.00 Build 0)  -->
<!DOCTYPE svg PUBLIC "-//W3C//DTD SVG 1.1//EN" "http://www.w3.org/Graphics/SVG/1.1/DTD/svg11.dtd">
<svg version="1.1" id="Слой_1" xmlns="http://www.w3.org/2000/svg" xmlns:xlink="http://www.w3.org/1999/xlink" x="0px" y="0px"
	 width="512px" height="512px" viewBox="0 0 512 512" enable-background="new 0 0 512 512" xml:space="preserve">
<g>
	<defs>
		<path id="SVGID_1_" d="M427.724,220.677c0-14.452-2.12-16.619-16.272-16.621c-73.816-0.003-147.633-0.001-221.448-0.001
			c-2.941,0-5.881,0-8.822,0c-0.063-0.435-0.125-0.867-0.188-1.301c21.42-5.731,42.834-11.479,64.26-17.193
			c52.827-14.09,105.658-28.162,158.487-42.245c12.927-3.446,14.875-6.836,11.373-19.789c-2.403-8.886-4.671-17.812-7.266-26.644
			c-7.236-24.625-29.161-37.182-54.129-30.703c-29.7,7.708-59.306,15.779-88.95,23.696
			c-50.398,13.459-100.802,26.897-151.188,40.395c-23.336,6.253-35.948,23.524-34.296,47.726c0.296,4.319-1.779,5.833-4.31,8.042
			c-20.5,17.883-16.37,49.587,8.299,61.295c4.763,2.261,5.604,4.867,5.595,9.404c-0.11,51.448-0.086,102.896-0.063,154.342
			c0.013,30.229,17.695,47.991,47.816,48c81.085,0.022,162.172,0.022,243.257,0c30.101-0.009,47.827-17.795,47.84-47.989
			C427.742,347.618,427.728,284.148,427.724,220.677z M332.105,92.285c1.877-0.524,3.281,0.334,4.692,1.148
			c17.843,10.3,35.661,20.636,55.322,32.025c-12.763,3.48-23.771,6.544-34.833,9.404c-1.134,0.293-2.729-0.384-3.869-1.036
			c-18.083-10.336-36.128-20.742-55.789-32.058C310.243,98.31,321.187,95.341,332.105,92.285z M267.931,135.546
			c8.108,5.778,17.231,10.132,27.292,15.944c-12.233,3.25-23.076,6.163-33.939,8.995c-1.938,0.505-3.878,0.213-5.658-0.837
			c-1.684-0.992-3.395-1.934-5.085-2.91c-16.12-9.315-32.239-18.632-47.978-27.729C226.365,113.242,247.398,120.914,267.931,135.546
			z M151.784,150.84c14.822,8.491,29.598,17.062,46.114,26.59c-12.92,3.555-23.8,6.561-34.689,9.535
			c-1.7,0.463-3.201-0.035-4.744-0.927c-17.055-9.856-34.146-19.649-51.41-29.563C119.191,145.888,139,143.517,151.784,150.84z
			 M98.274,230.852c-9.099-0.316-16.222-7.779-16.139-16.904c0.088-9.43,7.882-16.885,17.309-16.558
			c9.109,0.316,16.244,7.779,16.147,16.89C115.491,223.703,107.678,231.178,98.274,230.852z M407.579,411.275
			c-0.021,18.819-8.865,27.661-27.702,27.668c-81.048,0.025-162.097,0.023-243.146,0c-18.905-0.005-27.771-8.806-27.786-27.571
			c-0.036-41.363,0.056-82.726-0.102-124.089c-0.019-4.819,1.321-8.23,4.842-11.66c15.814-15.401,31.301-31.142,46.924-46.74
			c2.314-2.312,4.227-4.892,8.277-4.786c10.853,0.278,21.718,0.095,32.578,0.095c0.356,0.622,0.713,1.245,1.069,1.868
			c-18.104,18.024-36.207,36.049-55.393,55.153c20.687,0,40.099-0.027,59.511,0.024c3.335,0.008,4.777-2.599,6.677-4.488
			c16.053-15.96,32.117-31.909,47.985-48.052c3.163-3.219,6.324-4.761,10.915-4.611c9.981,0.328,19.982,0.102,32.212,0.102
			c-19.816,19.2-38.24,37.054-56.665,54.907c0.461,0.708,0.922,1.416,1.384,2.125c19.439,0,38.879-0.033,58.318,0.029
			c3.337,0.011,4.825-2.517,6.732-4.412c16.047-15.966,32.107-31.922,47.989-48.052c3.14-3.188,6.248-4.873,10.895-4.708
			c9.943,0.357,19.91,0.11,30.001,0.11c-18.507,18.461-36.596,36.508-54.687,54.553c0.364,0.831,0.728,1.663,1.091,2.494
			c10.671,0,21.349-0.222,32.011,0.07c8.544,0.233,19.966-3.761,24.787,1.713c4.205,4.772,1.262,15.945,1.272,24.291
			C407.619,341.964,407.619,376.619,407.579,411.275z"/>
	</defs>
	<clipPath id="SVGID_2_">
		<use xlink:href="#SVGID_1_"  overflow="visible"/>
	</clipPath>
	<linearGradient id="SVGID_3_" gradientUnits="userSpaceOnUse" x1="23.1899" y1="255.647" x2="486.4014" y2="255.647">
		<stop  offset="0" style="stop-color:#2483C5"/>
		<stop  offset="1" style="stop-color:#652D90"/>
	</linearGradient>
	
		<rect x="23.19" y="36.202" clip-path="url(#SVGID_2_)" fill="url(#SVGID_3_)" stroke="#231F20" stroke-miterlimit="10" width="463.211" height="438.89"/>
</g>
</svg>
