<?xml version="1.0" encoding="utf-8"?>
<!-- Generator: Adobe Illustrator 16.0.0, SVG Export Plug-In . SVG Version: 6.00 Build 0)  -->
<!DOCTYPE svg PUBLIC "-//W3C//DTD SVG 1.1//EN" "http://www.w3.org/Graphics/SVG/1.1/DTD/svg11.dtd">
<svg version="1.1" id="Слой_1" xmlns="http://www.w3.org/2000/svg" xmlns:xlink="http://www.w3.org/1999/xlink" x="0px" y="0px"
	 width="512px" height="512px" viewBox="0 0 512 512" enable-background="new 0 0 512 512" xml:space="preserve">
<g>
	<defs>
		<path id="SVGID_1_" d="M254.993,32.104c120.171-0.004,217.696,97.513,217.699,217.682
			c0.003,120.175-97.511,217.695-217.688,217.698c-120.302,0.003-217.808-97.642-217.698-218.008
			C37.417,129.502,134.953,32.108,254.993,32.104z M193.397,268.469c-2.937,0.396-5.559,0.556-8.087,1.132
			c-4.869,1.107-9.791,2.147-14.512,3.746c-39.148,13.253-67.069,49.728-68.582,89.553c-0.064,1.679,0.414,3.782,1.438,5.033
			c44.134,53.873,101.032,78.987,170.407,72.816c52.003-4.626,94.745-28.475,128.753-68.141c4.123-4.809,5.359-9.373,4.607-15.603
			c-5.012-41.438-35.754-76.346-76.378-86.068c-4.699-1.125-9.513-1.768-14.225-2.626c-2.433,10.295-5.688,15.139-13.792,20.746
			c-1.698,1.173-3.475,2.252-5.303,3.208c-12.611,6.604-26.211,9.197-40.286,9.479c-15.869,0.317-31.278-2.057-45.456-9.654
			C202.578,287.048,194.899,280.387,193.397,268.469z M177.726,166.871c0.425,10.37,1.674,23.255,4.886,35.851
			c5.981,23.459,16.245,44.447,35.191,60.417c22.14,18.659,53.219,18.395,75.07-0.509c14.218-12.303,23.585-27.715,30.033-45.111
			c5.031-13.564,7.333-27.679,8.799-42.03c1.858-18.187-0.979-35.326-9.688-51.448c-18.259-33.8-57.672-49.139-92.831-36.114
			C198.514,99.288,177.763,130.075,177.726,166.871z"/>
	</defs>
	<clipPath id="SVGID_2_">
		<use xlink:href="#SVGID_1_"  overflow="visible"/>
	</clipPath>
	<linearGradient id="SVGID_3_" gradientUnits="userSpaceOnUse" x1="23.3945" y1="255.7939" x2="486.6055" y2="255.7939">
		<stop  offset="0" style="stop-color:#2582C5"/>
		<stop  offset="1" style="stop-color:#652F8D"/>
	</linearGradient>
	
		<rect x="23.395" y="31.588" clip-path="url(#SVGID_2_)" fill="url(#SVGID_3_)" stroke="#221F1F" stroke-miterlimit="10" width="463.211" height="448.412"/>
</g>
</svg>
