<?xml version="1.0" encoding="utf-8"?>
<!-- Generator: Adobe Illustrator 16.0.0, SVG Export Plug-In . SVG Version: 6.00 Build 0)  -->
<!DOCTYPE svg PUBLIC "-//W3C//DTD SVG 1.1//EN" "http://www.w3.org/Graphics/SVG/1.1/DTD/svg11.dtd">
<svg version="1.1" id="Слой_1" xmlns="http://www.w3.org/2000/svg" xmlns:xlink="http://www.w3.org/1999/xlink" x="0px" y="0px"
	 width="512px" height="512px" viewBox="0 0 512 512" enable-background="new 0 0 512 512" xml:space="preserve">
<g>
	<defs>
		<path id="SVGID_1_" d="M335.443,431.222c-53.182,24.55-105.901,24.54-159.089,0.027c-0.701,1.164-1.51,2.398-2.214,3.69
			c-4.869,8.951-9.647,17.951-14.595,26.855c-3.101,5.583-7.856,7.679-13.227,6.165c-7.461-2.102-10.656-8.261-8.077-16.018
			c3.609-10.852,7.22-21.708,11.181-32.433c1.274-3.452,0.345-5.107-2.35-7.22c-36.61-28.698-59.378-65.894-67.067-111.823
			c-6.596-39.402-0.916-77.28,18.282-112.385c27.79-50.813,70.312-82.375,127.59-92.443c46.604-8.193,90.268,1.007,129.333,27.715
			c44.38,30.342,71.179,72.477,77.451,126.198c7.095,60.755-12.761,112.081-57.336,153.865c-3.659,3.43-7.584,6.605-11.604,9.608
			c-2.19,1.639-2.49,3.097-1.594,5.622c3.924,11.036,7.663,22.141,11.375,33.252c2.124,6.363,0.4,11.651-4.549,14.626
			c-6.275,3.775-12.974,2.006-16.72-4.693c-4.902-8.77-9.588-17.662-14.382-26.494C337.133,434.008,336.326,432.724,335.443,431.222
			z M274.572,405.638c58.5-5.464,110.775-58.93,115.539-115.902c-3.216,0-6.409,0.104-9.594-0.021
			c-5.979-0.237-11.267-2.229-14.993-7.096c-4.532-5.918-5.427-12.443-2.139-19.249c3.126-6.468,8.479-9.845,15.597-10.247
			c3.722-0.211,7.466-0.037,11.87-0.037c-5.054-33.576-19.656-61.169-44.395-83.318c-21.027-18.826-45.548-30.02-74.156-33.608
			c0,3.446,0.292,6.247-0.073,8.961c-0.459,3.395-0.413,7.685-2.438,9.873c-4.396,4.751-3.709,9.542-3.368,15.225
			c1.523,25.371,2.369,50.782,3.635,76.169c0.09,1.802,1.179,3.967,2.507,5.219c4.423,4.165,7.878,8.942,8.409,14.993
			c0.434,4.939,2.632,8.47,5.773,12.017c12.868,14.538,25.573,29.223,38.266,43.915c5.574,6.451,4.934,13.929-1.396,18.656
			c-4.972,3.714-10.659,3.279-15.987-1.421c-15.19-13.398-30.281-26.911-45.563-40.202c-1.681-1.462-4.316-2.408-6.568-2.532
			c-10.773-0.584-20.069-6.899-23.652-16.521c-3.76-10.106-1.088-20.831,6.793-28.39c1.239-1.186,2.237-3.214,2.337-4.912
			c1.202-20.494,2.169-41.001,3.297-61.5c0.449-8.158,1.145-16.303,1.788-25.314c-8.16-5.258-6.243-14.992-6.779-23.815
			c-58.037,4.891-111.808,56.11-117.829,116.452c3.764,0,7.495-0.137,11.213,0.026c9.417,0.412,17.136,7.939,17.559,16.968
			c0.461,9.802-5.845,17.708-15.537,19.082c-4.371,0.619-8.822,0.67-13.241,0.979c6.854,63.827,64.529,111.825,116.079,115.336
			c0-3.486-0.077-6.959,0.015-10.427c0.248-9.354,7.526-17.218,16.587-18.007c9.686-0.843,17.896,5.282,19.485,14.983
			C274.347,396.459,274.277,401.076,274.572,405.638z"/>
	</defs>
	<clipPath id="SVGID_2_">
		<use xlink:href="#SVGID_1_"  overflow="visible"/>
	</clipPath>
	<linearGradient id="SVGID_3_" gradientUnits="userSpaceOnUse" x1="24.3945" y1="259.7939" x2="487.6055" y2="259.7939">
		<stop  offset="0" style="stop-color:#2683C6"/>
		<stop  offset="1" style="stop-color:#652F8F"/>
	</linearGradient>
	
		<rect x="24.395" y="35.588" clip-path="url(#SVGID_2_)" fill="url(#SVGID_3_)" stroke="#231F20" stroke-miterlimit="10" width="463.211" height="448.412"/>
</g>
<g>
	<defs>
		<path id="SVGID_4_" d="M171.562,66.54c-34.542,34.545-68.782,68.787-103.239,103.247c-9.69-9.826-16.2-21.579-17.797-35.667
			c-2.86-25.217,7.41-45.488,24.828-62.612c13.966-13.729,30.518-22.422,50.549-23.174C143.806,47.661,158.83,54.23,171.562,66.54z"
			/>
	</defs>
	<clipPath id="SVGID_5_">
		<use xlink:href="#SVGID_4_"  overflow="visible"/>
	</clipPath>
	<linearGradient id="SVGID_6_" gradientUnits="userSpaceOnUse" x1="24.1152" y1="256" x2="487.3262" y2="256">
		<stop  offset="0" style="stop-color:#2683C6"/>
		<stop  offset="1" style="stop-color:#652F8F"/>
	</linearGradient>
	
		<rect x="24.115" y="31.794" clip-path="url(#SVGID_5_)" fill="url(#SVGID_6_)" stroke="#231F20" stroke-miterlimit="10" width="463.211" height="448.412"/>
</g>
<g>
	<defs>
		<path id="SVGID_7_" d="M340.474,66.581c15.813-17.402,42.075-23.582,66.425-13.93c28.432,11.269,47.338,31.835,53.705,62.188
			c4.451,21.208-2.372,39.586-17.018,54.856C409.182,135.291,374.937,101.045,340.474,66.581z"/>
	</defs>
	<clipPath id="SVGID_8_">
		<use xlink:href="#SVGID_7_"  overflow="visible"/>
	</clipPath>
	<linearGradient id="SVGID_9_" gradientUnits="userSpaceOnUse" x1="24.3945" y1="253.7939" x2="487.6055" y2="253.7939">
		<stop  offset="0" style="stop-color:#2683C6"/>
		<stop  offset="1" style="stop-color:#652F8F"/>
	</linearGradient>
	
		<rect x="24.395" y="29.588" clip-path="url(#SVGID_8_)" fill="url(#SVGID_9_)" stroke="#231F20" stroke-miterlimit="10" width="463.211" height="448.412"/>
</g>
<g>
	<defs>
		<path id="SVGID_10_" d="M288.334,72.688c-21.744,0-43.199,0-64.621,0c-1.753-11.395,10.766-27.969,29.345-29.102
			C271.568,42.458,288.463,56.231,288.334,72.688z"/>
	</defs>
	<clipPath id="SVGID_11_">
		<use xlink:href="#SVGID_10_"  overflow="visible"/>
	</clipPath>
	<linearGradient id="SVGID_12_" gradientUnits="userSpaceOnUse" x1="24.3945" y1="256" x2="487.6055" y2="256">
		<stop  offset="0" style="stop-color:#2683C6"/>
		<stop  offset="1" style="stop-color:#652F8F"/>
	</linearGradient>
	
		<rect x="24.395" y="31.794" clip-path="url(#SVGID_11_)" fill="url(#SVGID_12_)" stroke="#231F20" stroke-miterlimit="10" width="463.211" height="448.412"/>
</g>
</svg>
